<svg width="28" height="28" viewBox="0 0 28 28" fill="none" xmlns="http://www.w3.org/2000/svg">
<path opacity="0.4" d="M19.2382 25.6668H8.76152C4.66652 25.6668 3.77986 23.3218 4.11819 20.4518L5.16819 11.7018C5.43652 9.43849 5.83319 7.5835 9.79985 7.5835H18.1999C22.1665 7.5835 22.5632 9.43849 22.8315 11.7018L23.7065 18.9935L23.8815 20.4518C23.8932 20.5452 23.9049 20.6385 23.9165 20.7318C24.1615 23.4735 23.2049 25.6668 19.2382 25.6668Z" fill="#797A79"/>
<path d="M18.6667 10.2085C18.1884 10.2085 17.7917 9.81183 17.7917 9.3335V5.25016C17.7917 3.99016 17.01 3.2085 15.75 3.2085H12.25C10.99 3.2085 10.2084 3.99016 10.2084 5.25016V9.3335C10.2084 9.81183 9.81171 10.2085 9.33337 10.2085C8.85504 10.2085 8.45837 9.81183 8.45837 9.3335V5.25016C8.45837 3.02183 10.0217 1.4585 12.25 1.4585H15.75C17.9784 1.4585 19.5417 3.02183 19.5417 5.25016V9.3335C19.5417 9.81183 19.145 10.2085 18.6667 10.2085Z" fill="#797A79"/>
<path d="M23.9167 20.7315C23.8817 20.7432 23.8467 20.7432 23.8117 20.7432H9.33337C8.85504 20.7432 8.45837 20.3465 8.45837 19.8682C8.45837 19.3782 8.85504 18.9932 9.33337 18.9932H23.7067L23.8817 20.4515C23.8934 20.5448 23.905 20.6382 23.9167 20.7315Z" fill="#797A79"/>
</svg>
