<svg width="28" height="28" viewBox="0 0 28 28" fill="none" xmlns="http://www.w3.org/2000/svg">
<path d="M25.6667 10.1384C25.6667 11.5267 25.445 12.81 25.06 14H2.94004C2.55504 12.81 2.33337 11.5267 2.33337 10.1384C2.33337 6.53337 5.23837 3.6167 8.82004 3.6167C10.9317 3.6167 12.8217 4.64337 14 6.21837C15.1784 4.64337 17.0684 3.6167 19.18 3.6167C22.7617 3.6167 25.6667 6.53337 25.6667 10.1384Z" fill="#797A79"/>
<path opacity="0.4" d="M25.0601 14C23.2167 19.8333 17.5351 23.3217 14.7234 24.2783C14.3267 24.4183 13.6734 24.4183 13.2767 24.2783C10.4651 23.3217 4.7834 19.8333 2.94006 14H25.0601Z" fill="#797A79"/>
</svg>
