<svg width="28" height="28" viewBox="0 0 28 28" fill="none" xmlns="http://www.w3.org/2000/svg">
<path opacity="0.4" d="M24.3015 9.34503L16.6598 3.2317C15.1665 2.0417 12.8332 2.03003 11.3515 3.22003L3.70984 9.34503C2.61317 10.22 1.94817 11.97 2.1815 13.3467L3.6515 22.1434C3.98984 24.115 5.8215 25.6667 7.8165 25.6667H20.1832C22.1548 25.6667 24.0215 24.08 24.3598 22.1317L25.8298 13.335C26.0398 11.97 25.3748 10.22 24.3015 9.34503Z" fill="#797A79"/>
<path d="M14 21.875C13.5217 21.875 13.125 21.4783 13.125 21V17.5C13.125 17.0217 13.5217 16.625 14 16.625C14.4783 16.625 14.875 17.0217 14.875 17.5V21C14.875 21.4783 14.4783 21.875 14 21.875Z" fill="#797A79"/>
</svg>
