<svg width="28" height="28" viewBox="0 0 28 28" fill="none" xmlns="http://www.w3.org/2000/svg">
<path opacity="0.4" d="M18.9467 4.2583H9.05338C6.17171 4.2583 3.83838 6.6033 3.83838 9.4733V20.4516C3.83838 23.3216 6.18338 25.6666 9.05338 25.6666H18.935C21.8167 25.6666 24.15 23.3216 24.15 20.4516V9.4733C24.1617 6.59163 21.8167 4.2583 18.9467 4.2583Z" fill="#797A79"/>
<path d="M16.7414 2.3335H11.2581C10.0448 2.3335 9.0531 3.3135 9.0531 4.52683V5.6235C9.0531 6.83683 10.0331 7.81683 11.2464 7.81683H16.7414C17.9548 7.81683 18.9348 6.83683 18.9348 5.6235V4.52683C18.9464 3.3135 17.9548 2.3335 16.7414 2.3335Z" fill="#797A79"/>
<path d="M17.5 15.1084H9.33337C8.85504 15.1084 8.45837 14.7117 8.45837 14.2334C8.45837 13.7551 8.85504 13.3584 9.33337 13.3584H17.5C17.9784 13.3584 18.375 13.7551 18.375 14.2334C18.375 14.7117 17.9784 15.1084 17.5 15.1084Z" fill="#797A79"/>
<path d="M14.4434 19.7749H9.33337C8.85504 19.7749 8.45837 19.3782 8.45837 18.8999C8.45837 18.4216 8.85504 18.0249 9.33337 18.0249H14.4434C14.9217 18.0249 15.3184 18.4216 15.3184 18.8999C15.3184 19.3782 14.9217 19.7749 14.4434 19.7749Z" fill="#797A79"/>
</svg>
