<svg width="28" height="28" viewBox="0 0 28 28" fill="none" xmlns="http://www.w3.org/2000/svg">
<path opacity="0.4" d="M4.65493 17.1031L2.88161 15.3298C2.15828 14.6065 2.15828 13.4165 2.88161 12.6932L4.65493 10.9198C4.95827 10.6165 5.20327 10.0215 5.20327 9.60146V7.09317C5.20327 6.0665 6.04327 5.22646 7.06994 5.22646H9.57827C9.99827 5.22646 10.5933 4.98149 10.8966 4.67816L12.6699 2.9048C13.3933 2.18147 14.5833 2.18147 15.3066 2.9048L17.08 4.67816C17.3833 4.98149 17.9783 5.22646 18.3983 5.22646H20.9066C21.9333 5.22646 22.7733 6.0665 22.7733 7.09317V9.60146C22.7733 10.0215 23.0183 10.6165 23.3216 10.9198L25.095 12.6932C25.8183 13.4165 25.8183 14.6065 25.095 15.3298L23.3216 17.1031C23.0183 17.4065 22.7733 18.0015 22.7733 18.4215V20.9298C22.7733 21.9565 21.9333 22.7965 20.9066 22.7965H18.3983C17.9783 22.7965 17.3833 23.0415 17.08 23.3448L15.3066 25.1182C14.5833 25.8415 13.3933 25.8415 12.6699 25.1182L10.8966 23.3448C10.5933 23.0415 9.99827 22.7965 9.57827 22.7965H7.06994C6.04327 22.7965 5.20327 21.9565 5.20327 20.9298V18.4215C5.20327 17.9898 4.95827 17.3948 4.65493 17.1031Z" fill="#797A79"/>
<path d="M17.5 18.6668C16.8467 18.6668 16.3217 18.1418 16.3217 17.5002C16.3217 16.8585 16.8467 16.3335 17.4883 16.3335C18.13 16.3335 18.655 16.8585 18.655 17.5002C18.655 18.1418 18.1417 18.6668 17.5 18.6668Z" fill="#797A79"/>
<path d="M10.5117 11.6668C9.85839 11.6668 9.33337 11.1418 9.33337 10.5002C9.33337 9.8585 9.85837 9.3335 10.5 9.3335C11.1417 9.3335 11.6667 9.8585 11.6667 10.5002C11.6667 11.1418 11.1534 11.6668 10.5117 11.6668Z" fill="#797A79"/>
<path d="M10.5 18.375C10.2783 18.375 10.0567 18.2934 9.88168 18.1184C9.54335 17.7801 9.54335 17.22 9.88168 16.8817L16.8817 9.88168C17.22 9.54335 17.78 9.54335 18.1183 9.88168C18.4567 10.22 18.4567 10.7801 18.1183 11.1184L11.1183 18.1184C10.9433 18.2934 10.7217 18.375 10.5 18.375Z" fill="#797A79"/>
<circle cx="19.8333" cy="4.66683" r="2.33333" fill="#C80039"/>
</svg>
