<svg width="28" height="28" viewBox="0 0 28 28" fill="none" xmlns="http://www.w3.org/2000/svg">
<path opacity="0.4" d="M23.8002 19.0516C23.4735 19.9266 22.7852 20.5916 21.8869 20.8949C20.6269 21.3149 19.3319 21.6299 18.0252 21.8516C17.8969 21.8749 17.7685 21.8983 17.6402 21.9099C17.4302 21.9449 17.2202 21.9683 17.0102 21.9916C16.7535 22.0266 16.4852 22.0499 16.2169 22.0733C15.4819 22.1316 14.7585 22.1666 14.0235 22.1666C13.2769 22.1666 12.5302 22.1316 11.7952 22.0616C11.4802 22.0383 11.1769 22.0033 10.8735 21.9566C10.6985 21.9333 10.5235 21.9099 10.3602 21.8866C10.2319 21.8633 10.1035 21.8516 9.9752 21.8283C8.6802 21.6183 7.39686 21.3033 6.14853 20.8833C5.2152 20.5683 4.50353 19.9033 4.18853 19.0516C3.87353 18.2116 3.9902 17.2316 4.49186 16.3916L5.8102 14.1983C6.0902 13.7199 6.34686 12.7983 6.34686 12.2383V10.0683C6.34686 5.83327 9.78853 2.3916 14.0235 2.3916C18.2469 2.3916 21.6885 5.83327 21.6885 10.0683V12.2383C21.6885 12.7983 21.9452 13.7199 22.2369 14.1983L23.5552 16.3916C24.0335 17.2083 24.1269 18.1649 23.8002 19.0516Z" fill="#797A79"/>
<path d="M14.0003 12.5536C13.5103 12.5536 13.1136 12.1569 13.1136 11.6669V8.05024C13.1136 7.56024 13.5103 7.16357 14.0003 7.16357C14.4903 7.16357 14.887 7.56024 14.887 8.05024V11.6669C14.8753 12.1569 14.4786 12.5536 14.0003 12.5536Z" fill="#797A79"/>
<path d="M17.3019 23.3452C16.8119 24.6985 15.5169 25.6668 14.0002 25.6668C13.0785 25.6668 12.1685 25.2935 11.5269 24.6285C11.1535 24.2785 10.8735 23.8118 10.7102 23.3335C10.8619 23.3568 11.0135 23.3685 11.1769 23.3918C11.4452 23.4268 11.7252 23.4618 12.0052 23.4852C12.6702 23.5435 13.3469 23.5785 14.0235 23.5785C14.6885 23.5785 15.3535 23.5435 16.0069 23.4852C16.2519 23.4618 16.4969 23.4502 16.7302 23.4152C16.9169 23.3918 17.1035 23.3685 17.3019 23.3452Z" fill="#797A79"/>
<circle cx="19.8333" cy="4.66683" r="2.33333" fill="#C80039"/>
</svg>
