<svg width="100" height="162" viewBox="0 0 342 162" fill="none" xmlns="http://www.w3.org/2000/svg">
<g clip-path="url(#clip0_1_71)">
<path d="M0 0H294C316.627 0 327.941 0 334.971 7.02944C342 14.0589 342 25.3726 342 48V114C342 136.627 342 147.941 334.971 154.971C327.941 162 316.627 162 294 162H48C25.3726 162 14.0589 162 7.02944 154.971C0 147.941 0 136.627 0 114V0Z" fill="url(#paint0_linear_1_71)"/>
<g opacity="0.5">
<path opacity="0.1" d="M218.548 -28.964L334.023 39.3896V154.963L218.548 85.9904V-28.964Z" fill="white"/>
<path opacity="0.2" d="M449.093 -28.8946L333.621 39.3873V154.84L449.093 85.9393V-28.8946Z" fill="white"/>
<path opacity="0.3" d="M218.548 -28.5852L334.023 -97.5578L449.498 -28.5852V-28.0693L334.023 40.9033L218.548 -28.0693V-28.5852Z" fill="white"/>
<path opacity="0.1" d="M-107.1 36.6012L8.3751 104.955V220.528L-107.1 151.556V36.6012Z" fill="white"/>
<path opacity="0.2" d="M123.445 36.6702L7.97366 104.952V220.404L123.445 151.504V36.6702Z" fill="white"/>
<path opacity="0.3" d="M-107.1 36.9796L8.37509 -31.9931L123.85 36.9796V37.4954L8.37509 106.468L-107.1 37.4954V36.9796Z" fill="white"/>
<path opacity="0.1" d="M170.2 -0.214264L218.348 28.2861V76.475L170.2 47.7165V-0.214264Z" fill="white"/>
<path opacity="0.2" d="M266.327 -0.185257L218.18 28.2852V76.4236L266.327 47.6953V-0.185257Z" fill="white"/>
<path opacity="0.3" d="M170.2 -0.0562585L218.348 -28.8147L266.496 -0.0562585V0.158837L218.348 28.9173L170.2 0.158837V-0.0562585Z" fill="white"/>
<path opacity="0.3" d="M210.556 183.921L258.704 155.163L306.852 183.921V184.137L258.704 212.895L210.556 184.137V183.921Z" fill="white"/>
</g>
<path d="M54.1676 33.4224L53.9039 44.6021L46.0465 44.9185L45.0973 69.3872L33.9703 69.9673L32.9684 45.4985L25.111 45.9204L25.4274 33.4751L54.1676 33.4224ZM87.733 50.4028C87.733 52.0024 87.5485 53.5493 87.1793 55.0435C86.8102 56.52 86.274 57.9087 85.5709 59.2095C84.8854 60.5103 84.0416 61.7056 83.0397 62.7954C82.0553 63.8677 80.9391 64.7905 79.691 65.564C78.4606 66.3374 77.1158 66.9438 75.6569 67.3833C74.1979 67.8052 72.651 68.0161 71.0162 68.0161C69.4342 68.0161 67.9225 67.814 66.4811 67.4097C65.0573 67.0054 63.7213 66.4429 62.4733 65.7222C61.2252 64.9839 60.0914 64.105 59.0719 63.0854C58.0699 62.0483 57.2086 60.9058 56.4879 59.6577C55.7848 58.3921 55.2311 57.0386 54.8268 55.5972C54.4401 54.1558 54.2467 52.6528 54.2467 51.0884C54.2467 49.5591 54.4313 48.0649 54.8004 46.606C55.1696 45.1294 55.6969 43.7407 56.3824 42.4399C57.0856 41.1392 57.9293 39.9438 58.9137 38.854C59.8981 37.7642 60.9967 36.8237 62.2096 36.0327C63.4401 35.2417 64.7672 34.6265 66.191 34.187C67.6149 33.7476 69.1178 33.5278 70.6998 33.5278C73.2487 33.5278 75.569 33.9233 77.6608 34.7144C79.7701 35.5054 81.5631 36.6392 83.0397 38.1157C84.5338 39.5747 85.6852 41.3501 86.4938 43.4419C87.3199 45.5161 87.733 47.8364 87.733 50.4028ZM76.026 51.0884C76.026 50.3325 75.9117 49.603 75.6832 48.8999C75.4723 48.1792 75.1559 47.5464 74.734 47.0015C74.3121 46.439 73.7848 45.9907 73.152 45.6567C72.5367 45.3052 71.8248 45.1294 71.0162 45.1294C70.1901 45.1294 69.4518 45.2788 68.8014 45.5776C68.151 45.8765 67.5885 46.2896 67.1139 46.8169C66.6569 47.3267 66.3053 47.9331 66.0592 48.6362C65.8131 49.3218 65.6901 50.0513 65.6901 50.8247C65.6901 51.563 65.7955 52.3013 66.0065 53.0396C66.2174 53.7778 66.5338 54.4458 66.9557 55.0435C67.3776 55.6411 67.8961 56.1245 68.5114 56.4937C69.1442 56.8628 69.8737 57.0474 70.6998 57.0474C71.526 57.0474 72.2643 56.8892 72.9147 56.5728C73.5826 56.2388 74.1451 55.7993 74.6022 55.2544C75.0592 54.6919 75.4108 54.0503 75.6569 53.3296C75.903 52.6089 76.026 51.8618 76.026 51.0884ZM120.297 46.2896C120.297 47.9946 120.042 49.5063 119.532 50.8247C119.022 52.1431 118.319 53.3032 117.422 54.3052C116.544 55.2896 115.506 56.1245 114.311 56.8101C113.116 57.478 111.833 58.0317 110.462 58.4712C109.108 58.8931 107.702 59.2095 106.243 59.4204C104.784 59.6138 103.351 59.7192 101.945 59.7368V70.9692H89.6578C89.6578 68.9653 89.6578 67.0142 89.6578 65.1157C89.6754 63.2173 89.6842 61.3364 89.6842 59.4731C89.7018 57.5923 89.7106 55.7026 89.7106 53.8042C89.7281 51.9058 89.7457 49.9458 89.7633 47.9243C89.7985 45.7798 89.8073 43.6353 89.7897 41.4907C89.7721 39.3462 89.816 37.1841 89.9215 35.0044C92.1715 34.3364 94.4215 33.8354 96.6715 33.5015C98.9215 33.1675 101.242 33.0005 103.632 33.0005C104.986 33.0005 106.339 33.1147 107.693 33.3433C109.047 33.5542 110.339 33.897 111.569 34.3716C112.817 34.8462 113.968 35.4438 115.023 36.1646C116.095 36.8677 117.018 37.7114 117.792 38.6958C118.565 39.6802 119.172 40.8052 119.611 42.0708C120.068 43.3364 120.297 44.7427 120.297 46.2896ZM108.589 47.186C108.589 46.0435 108.238 45.1558 107.535 44.5229C106.849 43.8726 105.953 43.5474 104.845 43.5474C104.476 43.5474 104.089 43.5825 103.685 43.6528C103.298 43.7056 102.929 43.7759 102.578 43.8638L102.261 51.563C102.507 51.5981 102.745 51.6157 102.973 51.6157C103.202 51.6157 103.439 51.6157 103.685 51.6157C104.318 51.6157 104.924 51.5103 105.505 51.2993C106.102 51.0884 106.63 50.7896 107.087 50.4028C107.544 49.9985 107.904 49.5327 108.168 49.0054C108.449 48.4604 108.589 47.854 108.589 47.186ZM150.777 32.6841L149.248 70.1782L137.752 69.6509L138.384 44.7075L134.166 47.6079L130.211 38.5903L138.806 32.1567L150.777 32.6841ZM185.397 51.7212C185.397 53.2681 185.221 54.8062 184.87 56.3354C184.536 57.8647 184.044 59.3325 183.393 60.7388C182.743 62.145 181.943 63.4546 180.994 64.6675C180.062 65.8804 178.99 66.9351 177.777 67.8315C176.564 68.728 175.228 69.4312 173.769 69.9409C172.328 70.4507 170.772 70.7056 169.102 70.7056C167.415 70.7056 165.841 70.4507 164.382 69.9409C162.923 69.4312 161.588 68.728 160.375 67.8315C159.179 66.9351 158.107 65.8804 157.158 64.6675C156.209 63.4546 155.409 62.145 154.758 60.7388C154.108 59.3325 153.607 57.8647 153.255 56.3354C152.922 54.7886 152.755 53.2505 152.755 51.7212C152.755 50.1919 152.922 48.6538 153.255 47.1069C153.607 45.5601 154.108 44.0835 154.758 42.6772C155.409 41.271 156.209 39.9614 157.158 38.7485C158.107 37.5181 159.179 36.4546 160.375 35.5581C161.588 34.6616 162.923 33.9585 164.382 33.4487C165.859 32.939 167.432 32.6841 169.102 32.6841C170.772 32.6841 172.328 32.939 173.769 33.4487C175.228 33.9585 176.564 34.6616 177.777 35.5581C178.99 36.4546 180.062 37.5181 180.994 38.7485C181.943 39.9614 182.743 41.271 183.393 42.6772C184.044 44.0835 184.536 45.5601 184.87 47.1069C185.221 48.6538 185.397 50.1919 185.397 51.7212ZM174.27 52.5122C174.27 51.7388 174.165 50.8774 173.954 49.9282C173.743 48.979 173.418 48.0913 172.978 47.2651C172.539 46.439 171.976 45.7446 171.291 45.1821C170.605 44.6196 169.788 44.3384 168.839 44.3384C167.872 44.3384 167.046 44.6196 166.36 45.1821C165.674 45.7446 165.103 46.439 164.646 47.2651C164.207 48.0913 163.881 48.979 163.671 49.9282C163.46 50.8774 163.354 51.7388 163.354 52.5122C163.354 53.2856 163.46 54.147 163.671 55.0962C163.881 56.0454 164.207 56.9331 164.646 57.7593C165.103 58.5854 165.674 59.2798 166.36 59.8423C167.046 60.4048 167.872 60.686 168.839 60.686C169.788 60.686 170.605 60.4048 171.291 59.8423C171.976 59.2798 172.539 58.5854 172.978 57.7593C173.418 56.9331 173.743 56.0454 173.954 55.0962C174.165 54.147 174.27 53.2856 174.27 52.5122Z" fill="white"/>
<path d="M37.5325 87.4671L36.8048 99.0792L33.1978 99.2374L33.2294 93.1149L31.5999 98.0509H30.2077L28.9579 93.637L28.9421 98.7628L25.2876 98.8735L25.4458 87.9417L29.5116 87.7835L31.1253 93.02L33.2769 87.4671H37.5325ZM47.7999 92.9409C47.7999 93.4208 47.7446 93.8849 47.6338 94.3331C47.5231 94.7761 47.3622 95.1927 47.1513 95.5829C46.9456 95.9731 46.6925 96.3317 46.3919 96.6587C46.0966 96.9804 45.7617 97.2572 45.3873 97.4893C45.0182 97.7213 44.6148 97.9032 44.1771 98.0351C43.7394 98.1616 43.2753 98.2249 42.7849 98.2249C42.3103 98.2249 41.8568 98.1643 41.4243 98.043C40.9972 97.9217 40.5964 97.7529 40.222 97.5367C39.8476 97.3152 39.5074 97.0516 39.2016 96.7457C38.901 96.4346 38.6426 96.0918 38.4264 95.7174C38.2155 95.3377 38.0493 94.9316 37.9281 94.4992C37.812 94.0668 37.754 93.6159 37.754 93.1466C37.754 92.6878 37.8094 92.2395 37.9201 91.8018C38.0309 91.3589 38.1891 90.9423 38.3947 90.552C38.6057 90.1618 38.8588 89.8032 39.1541 89.4763C39.4494 89.1493 39.779 88.8672 40.1429 88.6299C40.512 88.3926 40.9102 88.208 41.3373 88.0762C41.7645 87.9443 42.2154 87.8784 42.69 87.8784C43.4546 87.8784 44.1507 87.9971 44.7782 88.2344C45.4111 88.4717 45.9489 88.8118 46.3919 89.2548C46.8402 89.6925 47.1856 90.2251 47.4281 90.8526C47.676 91.4749 47.7999 92.171 47.7999 92.9409ZM44.2878 93.1466C44.2878 92.9198 44.2535 92.701 44.185 92.49C44.1217 92.2738 44.0268 92.084 43.9002 91.9205C43.7737 91.7518 43.6155 91.6173 43.4256 91.5171C43.241 91.4116 43.0275 91.3589 42.7849 91.3589C42.537 91.3589 42.3156 91.4037 42.1204 91.4934C41.9253 91.583 41.7566 91.7069 41.6142 91.8651C41.4771 92.0181 41.3716 92.2 41.2978 92.4109C41.2239 92.6166 41.187 92.8354 41.187 93.0675C41.187 93.289 41.2187 93.5104 41.282 93.7319C41.3452 93.9534 41.4402 94.1538 41.5667 94.3331C41.6933 94.5124 41.8489 94.6574 42.0334 94.7682C42.2233 94.8789 42.4421 94.9343 42.69 94.9343C42.9378 94.9343 43.1593 94.8868 43.3544 94.7919C43.5548 94.6917 43.7236 94.5599 43.8607 94.3964C43.9978 94.2276 44.1032 94.0352 44.1771 93.8189C44.2509 93.6027 44.2878 93.3786 44.2878 93.1466ZM56.4615 94.9501C56.4615 95.6726 56.335 96.2975 56.0819 96.8248C55.834 97.3469 55.4912 97.7793 55.0535 98.1221C54.6211 98.4596 54.1122 98.7101 53.5269 98.8735C52.9468 99.0317 52.3219 99.1108 51.6522 99.1108C51.3938 99.1108 51.109 99.0766 50.7979 99.008C50.492 98.9394 50.1809 98.8551 49.8645 98.7549C49.5481 98.6494 49.2422 98.5387 48.9469 98.4227C48.6569 98.3014 48.3985 98.188 48.1717 98.0825L48.5197 94.9817C48.968 95.2507 49.4637 95.4563 50.0069 95.5987C50.5553 95.7358 51.0932 95.8044 51.6205 95.8044C51.7207 95.8044 51.842 95.8018 51.9844 95.7965C52.1268 95.7859 52.2613 95.7622 52.3878 95.7253C52.5197 95.6831 52.6304 95.6225 52.72 95.5434C52.8097 95.4643 52.8545 95.3509 52.8545 95.2032C52.8545 95.103 52.8229 95.0186 52.7596 94.9501C52.6963 94.8763 52.6146 94.8183 52.5144 94.7761C52.4142 94.7286 52.3008 94.6943 52.1742 94.6732C52.0477 94.6469 51.9238 94.6284 51.8025 94.6179C51.6812 94.6073 51.5678 94.602 51.4623 94.602C51.3569 94.602 51.2725 94.602 51.2092 94.602C50.7557 94.602 50.3417 94.5309 49.9673 94.3885C49.5982 94.2461 49.2791 94.0457 49.0102 93.7873C48.7465 93.5236 48.5408 93.2072 48.3932 92.8381C48.2455 92.4637 48.1717 92.0497 48.1717 91.5962C48.1717 90.9739 48.2956 90.4176 48.5435 89.9271C48.7966 89.4314 49.1315 89.0122 49.5481 88.6694C49.9699 88.3214 50.4525 88.0551 50.9956 87.8705C51.5388 87.6859 52.1004 87.5936 52.6805 87.5936C52.9389 87.5936 53.2052 87.6042 53.4794 87.6253C53.7536 87.6411 54.0252 87.6727 54.2942 87.7202C54.5684 87.7677 54.8347 87.8283 55.0931 87.9021C55.3515 87.976 55.5967 88.0683 55.8287 88.179L55.5281 91.3905C55.1696 91.2692 54.7925 91.169 54.397 91.0899C54.0068 91.0056 53.6244 90.9634 53.25 90.9634C53.1815 90.9634 53.0918 90.966 52.9811 90.9713C52.8756 90.9713 52.7622 90.9792 52.6409 90.995C52.5249 91.0056 52.4063 91.024 52.285 91.0504C52.1637 91.0768 52.0556 91.1137 51.9607 91.1611C51.8657 91.2033 51.7893 91.2613 51.7313 91.3352C51.6733 91.409 51.6469 91.496 51.6522 91.5962C51.6574 91.7122 51.6996 91.8018 51.7787 91.8651C51.8631 91.9284 51.9686 91.9759 52.0951 92.0075C52.227 92.0339 52.3694 92.0471 52.5223 92.0471C52.6805 92.0471 52.8361 92.0444 52.989 92.0392C53.1419 92.0286 53.2843 92.0207 53.4161 92.0154C53.548 92.0049 53.6561 92.0022 53.7405 92.0075C54.1623 92.0339 54.542 92.1235 54.8795 92.2765C55.217 92.4294 55.5018 92.6324 55.7338 92.8855C55.9711 93.1387 56.1504 93.4419 56.2717 93.7952C56.3983 94.1433 56.4615 94.5282 56.4615 94.9501ZM65.1627 87.8468L65.0836 91.2007L62.7264 91.2956L62.4416 98.6362L59.1035 98.8102L58.803 91.4696L56.4457 91.5962L56.5406 87.8626L65.1627 87.8468ZM77.993 91.7069C77.993 92.2185 77.9165 92.672 77.7636 93.0675C77.6107 93.463 77.3997 93.811 77.1308 94.1116C76.8671 94.4069 76.556 94.6574 76.1974 94.8631C75.8388 95.0635 75.4538 95.2296 75.0425 95.3614C74.6364 95.488 74.2146 95.5829 73.7769 95.6462C73.3392 95.7042 72.9094 95.7358 72.4875 95.7411V99.1108H68.8014C68.8014 98.5097 68.8014 97.9243 68.8014 97.3548C68.8067 96.7852 68.8093 96.221 68.8093 95.662C68.8146 95.0977 68.8172 94.5309 68.8172 93.9613C68.8225 93.3918 68.8278 92.8038 68.833 92.1974C68.8436 91.554 68.8462 90.9106 68.8409 90.2673C68.8357 89.6239 68.8489 88.9753 68.8805 88.3214C69.5555 88.121 70.2305 87.9707 70.9055 87.8705C71.5805 87.7703 72.2766 87.7202 72.9938 87.7202C73.3998 87.7202 73.8059 87.7545 74.2119 87.823C74.618 87.8863 75.0056 87.9892 75.3747 88.1315C75.7491 88.2739 76.0946 88.4532 76.411 88.6694C76.7326 88.8804 77.0095 89.1335 77.2415 89.4288C77.4736 89.7241 77.6555 90.0616 77.7873 90.4413C77.9244 90.821 77.993 91.2429 77.993 91.7069ZM74.4809 91.9759C74.4809 91.6331 74.3754 91.3668 74.1645 91.1769C73.9588 90.9818 73.6899 90.8843 73.3576 90.8843C73.2469 90.8843 73.1309 90.8948 73.0096 90.9159C72.8936 90.9317 72.7828 90.9528 72.6774 90.9792L72.5824 93.289C72.6563 93.2995 72.7275 93.3048 72.796 93.3048C72.8646 93.3048 72.9358 93.3048 73.0096 93.3048C73.1994 93.3048 73.3814 93.2731 73.5554 93.2099C73.7347 93.1466 73.8929 93.0569 74.03 92.9409C74.1671 92.8196 74.2752 92.6799 74.3543 92.5217C74.4387 92.3582 74.4809 92.1763 74.4809 91.9759ZM88.2208 92.9409C88.2208 93.4208 88.1655 93.8849 88.0547 94.3331C87.944 94.7761 87.7831 95.1927 87.5722 95.5829C87.3665 95.9731 87.1134 96.3317 86.8128 96.6587C86.5175 96.9804 86.1826 97.2572 85.8082 97.4893C85.4391 97.7213 85.0357 97.9032 84.598 98.0351C84.1603 98.1616 83.6962 98.2249 83.2058 98.2249C82.7312 98.2249 82.2777 98.1643 81.8452 98.043C81.4181 97.9217 81.0173 97.7529 80.6429 97.5367C80.2685 97.3152 79.9283 97.0516 79.6225 96.7457C79.3219 96.4346 79.0635 96.0918 78.8473 95.7174C78.6363 95.3377 78.4702 94.9316 78.3489 94.4992C78.2329 94.0668 78.1749 93.6159 78.1749 93.1466C78.1749 92.6878 78.2303 92.2395 78.341 91.8018C78.4518 91.3589 78.61 90.9423 78.8156 90.552C79.0266 90.1618 79.2797 89.8032 79.575 89.4763C79.8703 89.1493 80.1999 88.8672 80.5638 88.6299C80.9329 88.3926 81.3311 88.208 81.7582 88.0762C82.1854 87.9443 82.6363 87.8784 83.1109 87.8784C83.8755 87.8784 84.5716 87.9971 85.1991 88.2344C85.832 88.4717 86.3698 88.8118 86.8128 89.2548C87.2611 89.6925 87.6065 90.2251 87.849 90.8526C88.0969 91.4749 88.2208 92.171 88.2208 92.9409ZM84.7087 93.1466C84.7087 92.9198 84.6744 92.701 84.6059 92.49C84.5426 92.2738 84.4477 92.084 84.3211 91.9205C84.1946 91.7518 84.0363 91.6173 83.8465 91.5171C83.6619 91.4116 83.4484 91.3589 83.2058 91.3589C82.9579 91.3589 82.7364 91.4037 82.5413 91.4934C82.3462 91.583 82.1775 91.7069 82.0351 91.8651C81.898 92.0181 81.7925 92.2 81.7187 92.4109C81.6448 92.6166 81.6079 92.8354 81.6079 93.0675C81.6079 93.289 81.6396 93.5104 81.7029 93.7319C81.7661 93.9534 81.8611 94.1538 81.9876 94.3331C82.1142 94.5124 82.2697 94.6574 82.4543 94.7682C82.6442 94.8789 82.863 94.9343 83.1109 94.9343C83.3587 94.9343 83.5802 94.8868 83.7753 94.7919C83.9757 94.6917 84.1445 94.5599 84.2816 94.3964C84.4187 94.2276 84.5241 94.0352 84.598 93.8189C84.6718 93.6027 84.7087 93.3786 84.7087 93.1466ZM97.9899 91.7069C97.9899 92.2185 97.9134 92.672 97.7605 93.0675C97.6075 93.463 97.3966 93.811 97.1277 94.1116C96.864 94.4069 96.5529 94.6574 96.1943 94.8631C95.8357 95.0635 95.4507 95.2296 95.0394 95.3614C94.6333 95.488 94.2114 95.5829 93.7737 95.6462C93.3361 95.7042 92.9063 95.7358 92.4844 95.7411V99.1108H88.7983C88.7983 98.5097 88.7983 97.9243 88.7983 97.3548C88.8035 96.7852 88.8062 96.221 88.8062 95.662C88.8114 95.0977 88.8141 94.5309 88.8141 93.9613C88.8194 93.3918 88.8246 92.8038 88.8299 92.1974C88.8404 91.554 88.8431 90.9106 88.8378 90.2673C88.8325 89.6239 88.8457 88.9753 88.8774 88.3214C89.5524 88.121 90.2274 87.9707 90.9024 87.8705C91.5774 87.7703 92.2735 87.7202 92.9906 87.7202C93.3967 87.7202 93.8028 87.7545 94.2088 87.823C94.6149 87.8863 95.0025 87.9892 95.3716 88.1315C95.746 88.2739 96.0914 88.4532 96.4078 88.6694C96.7295 88.8804 97.0064 89.1335 97.2384 89.4288C97.4704 89.7241 97.6524 90.0616 97.7842 90.4413C97.9213 90.821 97.9899 91.2429 97.9899 91.7069ZM94.4778 91.9759C94.4778 91.6331 94.3723 91.3668 94.1613 91.1769C93.9557 90.9818 93.6867 90.8843 93.3545 90.8843C93.2438 90.8843 93.1278 90.8948 93.0065 90.9159C92.8904 90.9317 92.7797 90.9528 92.6742 90.9792L92.5793 93.289C92.6531 93.2995 92.7243 93.3048 92.7929 93.3048C92.8614 93.3048 92.9326 93.3048 93.0065 93.3048C93.1963 93.3048 93.3782 93.2731 93.5523 93.2099C93.7316 93.1466 93.8898 93.0569 94.0269 92.9409C94.164 92.8196 94.2721 92.6799 94.3512 92.5217C94.4356 92.3582 94.4778 92.1763 94.4778 91.9759ZM107.87 87.8626C107.632 89.7188 107.429 91.5672 107.261 93.4076C107.092 95.2428 106.931 97.0911 106.778 98.9526L103.535 99.1899L103.677 97.9718C103.572 98.0931 103.448 98.1985 103.305 98.2882C103.168 98.3778 103.021 98.4517 102.863 98.5097C102.704 98.5624 102.541 98.6019 102.372 98.6283C102.203 98.6494 102.042 98.6573 101.89 98.652C101.531 98.6468 101.193 98.5782 100.877 98.4464C100.561 98.3093 100.271 98.13 100.007 97.9085C99.7433 97.6817 99.506 97.4207 99.295 97.1254C99.0841 96.8248 98.9048 96.511 98.7571 96.1841C98.6148 95.8518 98.504 95.5143 98.4249 95.1716C98.3511 94.8288 98.3142 94.4966 98.3142 94.1749C98.3142 93.7003 98.3221 93.2099 98.3379 92.7036C98.359 92.1921 98.3933 91.6806 98.4407 91.169C98.4882 90.6575 98.5488 90.1513 98.6227 89.6503C98.7018 89.1493 98.7993 88.6694 98.9154 88.2106C99.5587 88.2423 100.205 88.2713 100.853 88.2977C101.502 88.324 102.148 88.3319 102.791 88.3214C102.67 88.7802 102.549 89.2416 102.427 89.7057C102.311 90.1644 102.206 90.6285 102.111 91.0978C102.016 91.5619 101.94 92.0286 101.882 92.4979C101.824 92.9673 101.795 93.4419 101.795 93.9218C101.795 94.0325 101.8 94.1907 101.81 94.3964C101.821 94.602 101.847 94.8051 101.89 95.0055C101.937 95.2059 102.006 95.3825 102.095 95.5354C102.19 95.6831 102.322 95.7569 102.491 95.7569C102.691 95.7569 102.87 95.6726 103.029 95.5038C103.187 95.3298 103.327 95.0977 103.448 94.8077C103.569 94.5177 103.672 94.1828 103.756 93.8031C103.846 93.4234 103.92 93.0279 103.978 92.6166C104.041 92.2 104.091 91.7808 104.128 91.3589C104.165 90.937 104.191 90.5415 104.207 90.1724C104.228 89.7979 104.242 89.4631 104.247 89.1678C104.257 88.8725 104.263 88.6431 104.263 88.4796C104.263 88.3741 104.26 88.2713 104.255 88.1711C104.249 88.0709 104.242 87.9681 104.231 87.8626C104.574 87.8731 104.914 87.881 105.251 87.8863C105.589 87.8916 105.929 87.8942 106.272 87.8942C106.535 87.8942 106.799 87.8942 107.063 87.8942C107.332 87.889 107.601 87.8784 107.87 87.8626ZM115.281 94.8077L114.949 98.3198L108.289 98.8419L108.542 87.5462H112.655L112.07 94.8077H115.281ZM125.628 98.3198L121.705 98.8261L121.23 97.0384H119.426L119.031 98.8261L114.997 98.4306L118.145 87.8942L122.543 87.6727L125.628 98.3198ZM120.945 94.6179L120.344 91.8651L119.759 94.6179H120.945ZM135.065 91.3747C135.065 91.786 135.028 92.1604 134.954 92.4979C134.885 92.8302 134.775 93.136 134.622 93.4155C134.469 93.695 134.271 93.9534 134.029 94.1907C133.786 94.428 133.493 94.6548 133.151 94.871L135.033 98.2249L131.474 98.921L130.255 95.5513L129.275 95.5829L129.132 98.8735H125.731C125.757 97.6712 125.781 96.4741 125.802 95.2823C125.828 94.0905 125.857 92.8935 125.889 91.6911C125.9 91.0847 125.91 90.4835 125.921 89.8876C125.931 89.2917 125.952 88.6905 125.984 88.0841C126.353 87.947 126.717 87.8336 127.076 87.7439C127.434 87.6543 127.793 87.5857 128.151 87.5383C128.515 87.4855 128.882 87.4513 129.251 87.4354C129.625 87.4144 130.008 87.4038 130.398 87.4038C130.999 87.4038 131.579 87.4882 132.138 87.6569C132.702 87.8204 133.201 88.0683 133.633 88.4005C134.065 88.7327 134.411 89.1467 134.669 89.6424C134.933 90.1381 135.065 90.7155 135.065 91.3747ZM131.521 91.6278C131.521 91.4063 131.489 91.2033 131.426 91.0187C131.368 90.8342 131.278 90.676 131.157 90.5441C131.041 90.407 130.893 90.3016 130.714 90.2277C130.54 90.1486 130.334 90.1091 130.097 90.1091C129.992 90.1091 129.889 90.117 129.789 90.1328C129.688 90.1434 129.591 90.1618 129.496 90.1882L129.369 93.1308H129.559C129.786 93.1308 130.015 93.1018 130.247 93.0437C130.485 92.9857 130.696 92.8961 130.88 92.7748C131.07 92.6535 131.223 92.4979 131.339 92.3081C131.46 92.1183 131.521 91.8915 131.521 91.6278ZM29.4325 112.863L28.8788 123.636L25.5407 123.81L25.2243 113.084L29.4325 112.863ZM38.458 112.847L38.3789 116.201L36.0217 116.296L35.7369 123.636L32.3989 123.81L32.0983 116.47L29.741 116.596L29.836 112.863L38.458 112.847ZM47.5784 117.609C47.5784 118.067 47.5468 118.526 47.4835 118.985C46.5818 119.043 45.6853 119.138 44.7941 119.27C43.9029 119.396 43.0116 119.523 42.1204 119.65C42.2575 120.029 42.4711 120.332 42.7612 120.559C43.0565 120.786 43.4072 120.899 43.8132 120.899C44.0241 120.899 44.2535 120.86 44.5014 120.781C44.7545 120.702 45.005 120.604 45.2529 120.488C45.5007 120.367 45.738 120.237 45.9648 120.1C46.1915 119.963 46.3866 119.839 46.5501 119.729L46.1704 123.32C45.9648 123.478 45.7406 123.612 45.4981 123.723C45.2608 123.834 45.0129 123.924 44.7545 123.992C44.4961 124.061 44.2351 124.111 43.9714 124.142C43.7077 124.174 43.4493 124.19 43.1962 124.19C42.6741 124.19 42.1969 124.119 41.7645 123.976C41.3321 123.834 40.9392 123.636 40.5859 123.383C40.2378 123.125 39.932 122.821 39.6683 122.473C39.4046 122.125 39.1858 121.746 39.0117 121.334C38.8377 120.923 38.7059 120.488 38.6162 120.029C38.5266 119.57 38.4818 119.106 38.4818 118.637C38.4818 118.147 38.5266 117.656 38.6162 117.166C38.7059 116.675 38.8404 116.203 39.0197 115.75C39.2042 115.296 39.4336 114.877 39.7078 114.492C39.9873 114.102 40.3116 113.762 40.6808 113.472C41.0499 113.182 41.4665 112.955 41.9306 112.791C42.3999 112.628 42.9167 112.546 43.481 112.546C43.9503 112.546 44.3775 112.612 44.7624 112.744C45.1527 112.871 45.4981 113.05 45.7987 113.282C46.1045 113.509 46.3682 113.78 46.5897 114.097C46.8164 114.413 47.001 114.761 47.1434 115.141C47.291 115.515 47.3991 115.913 47.4677 116.335C47.5415 116.752 47.5784 117.176 47.5784 117.609ZM44.4144 117.197C44.4144 117.05 44.3986 116.899 44.3669 116.746C44.3353 116.588 44.2825 116.446 44.2087 116.319C44.1402 116.193 44.0479 116.09 43.9319 116.011C43.8158 115.926 43.6708 115.884 43.4968 115.884C43.2859 115.884 43.0987 115.942 42.9352 116.058C42.777 116.169 42.6399 116.311 42.5239 116.485C42.4078 116.654 42.3129 116.839 42.2391 117.039C42.1653 117.24 42.1099 117.424 42.073 117.593L44.4144 117.371V117.197ZM61.8167 118.637C61.8167 119.391 61.793 120.143 61.7455 120.891C61.6981 121.64 61.6427 122.392 61.5794 123.146L57.5136 123.336C57.6349 122.418 57.743 121.5 57.8379 120.583C57.9381 119.66 57.9882 118.737 57.9882 117.814C57.9882 117.756 57.9856 117.656 57.9803 117.514C57.975 117.366 57.9645 117.2 57.9487 117.015C57.9381 116.831 57.9197 116.641 57.8933 116.446C57.8722 116.246 57.8405 116.064 57.7984 115.9C57.7614 115.731 57.714 115.594 57.656 115.489C57.598 115.383 57.5294 115.331 57.4503 115.331C57.2657 115.331 57.1207 115.402 57.0153 115.544C56.9098 115.681 56.8307 115.847 56.778 116.042C56.7305 116.238 56.7015 116.438 56.6909 116.644C56.6804 116.844 56.6751 117.008 56.6751 117.134C56.6751 117.356 56.6804 117.577 56.6909 117.799C56.7015 118.02 56.7068 118.247 56.7068 118.479C56.7068 119.296 56.6857 120.111 56.6435 120.923C56.6066 121.735 56.5591 122.55 56.5011 123.367L52.7517 123.51C52.873 122.592 52.9784 121.677 53.0681 120.765C53.163 119.847 53.2105 118.927 53.2105 118.004C53.2105 117.946 53.2078 117.841 53.2026 117.688C53.1973 117.535 53.1867 117.363 53.1709 117.174C53.1604 116.984 53.1419 116.786 53.1156 116.58C53.0892 116.375 53.0549 116.187 53.0127 116.019C52.9758 115.845 52.9283 115.702 52.8703 115.592C52.8123 115.481 52.7411 115.425 52.6568 115.425C52.5249 115.425 52.4142 115.478 52.3245 115.584C52.2349 115.684 52.1611 115.816 52.1031 115.979C52.0503 116.143 52.0081 116.325 51.9765 116.525C51.9501 116.72 51.929 116.913 51.9132 117.102C51.9027 117.292 51.8947 117.469 51.8895 117.632C51.8895 117.791 51.8868 117.909 51.8816 117.988L51.7075 123.763H47.7208C47.8052 122.872 47.8896 121.978 47.9739 121.081C48.0636 120.185 48.1401 119.291 48.2033 118.4C48.2719 117.503 48.3273 116.607 48.3695 115.71C48.4116 114.814 48.4327 113.917 48.4327 113.021L52.198 112.863L52.1822 113.78C52.2982 113.633 52.43 113.485 52.5777 113.337C52.7253 113.184 52.8809 113.05 53.0444 112.934C53.2131 112.812 53.3898 112.715 53.5743 112.641C53.7642 112.567 53.9593 112.53 54.1597 112.53C54.4181 112.53 54.6501 112.551 54.8558 112.594C55.0614 112.631 55.246 112.696 55.4095 112.791C55.5782 112.886 55.7259 113.018 55.8525 113.187C55.979 113.35 56.0898 113.559 56.1847 113.812C56.3534 113.627 56.5222 113.456 56.6909 113.298C56.865 113.139 57.0469 113.005 57.2367 112.894C57.4266 112.778 57.6322 112.689 57.8537 112.625C58.0752 112.562 58.3204 112.53 58.5894 112.53C59.1009 112.53 59.536 112.631 59.8946 112.831C60.2531 113.026 60.5511 113.287 60.7884 113.614C61.031 113.941 61.2182 114.315 61.35 114.737C61.4871 115.159 61.59 115.597 61.6585 116.05C61.7271 116.504 61.7693 116.955 61.7851 117.403C61.8062 117.851 61.8167 118.263 61.8167 118.637ZM70.6524 119.95C70.6524 120.673 70.5258 121.297 70.2727 121.825C70.0248 122.347 69.6821 122.779 69.2444 123.122C68.8119 123.46 68.303 123.71 67.7177 123.874C67.1376 124.032 66.5127 124.111 65.843 124.111C65.5846 124.111 65.2998 124.077 64.9887 124.008C64.6828 123.939 64.3717 123.855 64.0553 123.755C63.7389 123.649 63.433 123.539 63.1377 123.423C62.8477 123.301 62.5893 123.188 62.3625 123.083L62.7106 119.982C63.1588 120.251 63.6545 120.456 64.1977 120.599C64.7461 120.736 65.284 120.804 65.8113 120.804C65.9115 120.804 66.0328 120.802 66.1752 120.796C66.3176 120.786 66.4521 120.762 66.5786 120.725C66.7105 120.683 66.8212 120.622 66.9109 120.543C67.0005 120.464 67.0453 120.351 67.0453 120.203C67.0453 120.103 67.0137 120.019 66.9504 119.95C66.8871 119.876 66.8054 119.818 66.7052 119.776C66.605 119.729 66.4916 119.694 66.3651 119.673C66.2385 119.647 66.1146 119.628 65.9933 119.618C65.872 119.607 65.7586 119.602 65.6531 119.602C65.5477 119.602 65.4633 119.602 65.4 119.602C64.9465 119.602 64.5325 119.531 64.1581 119.388C63.789 119.246 63.4699 119.046 63.201 118.787C62.9373 118.524 62.7317 118.207 62.584 117.838C62.4363 117.464 62.3625 117.05 62.3625 116.596C62.3625 115.974 62.4864 115.418 62.7343 114.927C62.9874 114.431 63.3223 114.012 63.7389 113.669C64.1608 113.321 64.6433 113.055 65.1864 112.871C65.7296 112.686 66.2912 112.594 66.8713 112.594C67.1297 112.594 67.396 112.604 67.6702 112.625C67.9445 112.641 68.216 112.673 68.485 112.72C68.7592 112.768 69.0255 112.828 69.2839 112.902C69.5423 112.976 69.7875 113.068 70.0196 113.179L69.719 116.391C69.3604 116.269 68.9833 116.169 68.5878 116.09C68.1976 116.006 67.8153 115.963 67.4408 115.963C67.3723 115.963 67.2826 115.966 67.1719 115.971C67.0664 115.971 66.953 115.979 66.8318 115.995C66.7157 116.006 66.5971 116.024 66.4758 116.05C66.3545 116.077 66.2464 116.114 66.1515 116.161C66.0566 116.203 65.9801 116.261 65.9221 116.335C65.8641 116.409 65.8377 116.496 65.843 116.596C65.8483 116.712 65.8905 116.802 65.9696 116.865C66.0539 116.928 66.1594 116.976 66.286 117.008C66.4178 117.034 66.5602 117.047 66.7131 117.047C66.8713 117.047 67.0269 117.044 67.1798 117.039C67.3327 117.029 67.4751 117.021 67.607 117.015C67.7388 117.005 67.8469 117.002 67.9313 117.008C68.3531 117.034 68.7328 117.124 69.0703 117.276C69.4078 117.429 69.6926 117.632 69.9246 117.886C70.1619 118.139 70.3412 118.442 70.4625 118.795C70.5891 119.143 70.6524 119.528 70.6524 119.95ZM81.8136 112.752C81.782 113.248 81.753 113.738 81.7266 114.223C81.7002 114.708 81.6659 115.199 81.6238 115.694L78.2698 115.868V116.865H81.1808L81.0226 119.317L78.254 119.396L78.2698 123.763L74.2673 123.842L74.5204 112.752H81.8136ZM91.8595 117.941C91.8595 118.421 91.8041 118.885 91.6934 119.333C91.5826 119.776 91.4218 120.193 91.2109 120.583C91.0052 120.973 90.7521 121.332 90.4515 121.659C90.1562 121.98 89.8213 122.257 89.4469 122.489C89.0778 122.721 88.6743 122.903 88.2366 123.035C87.7989 123.162 87.3349 123.225 86.8445 123.225C86.3698 123.225 85.9163 123.164 85.4839 123.043C85.0568 122.922 84.656 122.753 84.2816 122.537C83.9072 122.315 83.567 122.052 83.2612 121.746C82.9606 121.435 82.7022 121.092 82.486 120.717C82.275 120.338 82.1089 119.932 81.9876 119.499C81.8716 119.067 81.8136 118.616 81.8136 118.147C81.8136 117.688 81.869 117.24 81.9797 116.802C82.0905 116.359 82.2487 115.942 82.4543 115.552C82.6653 115.162 82.9184 114.803 83.2137 114.476C83.509 114.149 83.8386 113.867 84.2025 113.63C84.5716 113.393 84.9697 113.208 85.3969 113.076C85.824 112.944 86.2749 112.878 86.7495 112.878C87.5142 112.878 88.2103 112.997 88.8378 113.234C89.4706 113.472 90.0085 113.812 90.4515 114.255C90.8997 114.692 91.2451 115.225 91.4877 115.853C91.7356 116.475 91.8595 117.171 91.8595 117.941ZM88.3474 118.147C88.3474 117.92 88.3131 117.701 88.2446 117.49C88.1813 117.274 88.0863 117.084 87.9598 116.921C87.8332 116.752 87.675 116.617 87.4852 116.517C87.3006 116.412 87.087 116.359 86.8445 116.359C86.5966 116.359 86.3751 116.404 86.18 116.493C85.9849 116.583 85.8161 116.707 85.6738 116.865C85.5366 117.018 85.4312 117.2 85.3573 117.411C85.2835 117.617 85.2466 117.835 85.2466 118.067C85.2466 118.289 85.2782 118.51 85.3415 118.732C85.4048 118.953 85.4997 119.154 85.6263 119.333C85.7529 119.512 85.9084 119.657 86.093 119.768C86.2828 119.879 86.5017 119.934 86.7495 119.934C86.9974 119.934 87.2189 119.887 87.414 119.792C87.6144 119.692 87.7831 119.56 87.9202 119.396C88.0573 119.228 88.1628 119.035 88.2366 118.819C88.3105 118.603 88.3474 118.379 88.3474 118.147ZM101.684 116.375C101.684 116.786 101.647 117.16 101.573 117.498C101.505 117.83 101.394 118.136 101.241 118.416C101.088 118.695 100.89 118.953 100.648 119.191C100.405 119.428 100.112 119.655 99.7697 119.871L101.652 123.225L98.0927 123.921L96.8745 120.551L95.8937 120.583L95.7513 123.874H92.3499C92.3763 122.671 92.4 121.474 92.4211 120.282C92.4475 119.091 92.4765 117.893 92.5081 116.691C92.5187 116.085 92.5292 115.483 92.5398 114.888C92.5503 114.292 92.5714 113.691 92.6031 113.084C92.9722 112.947 93.3361 112.834 93.6947 112.744C94.0532 112.654 94.4118 112.586 94.7704 112.538C95.1343 112.486 95.5008 112.451 95.8699 112.435C96.2444 112.414 96.6267 112.404 97.0169 112.404C97.6181 112.404 98.1982 112.488 98.7572 112.657C99.3214 112.82 99.8197 113.068 100.252 113.4C100.685 113.733 101.03 114.147 101.288 114.642C101.552 115.138 101.684 115.716 101.684 116.375ZM98.1402 116.628C98.1402 116.406 98.1085 116.203 98.0452 116.019C97.9872 115.834 97.8976 115.676 97.7763 115.544C97.6603 115.407 97.5126 115.302 97.3333 115.228C97.1593 115.149 96.9536 115.109 96.7163 115.109C96.6109 115.109 96.508 115.117 96.4078 115.133C96.3076 115.143 96.2101 115.162 96.1152 115.188L95.9886 118.131H96.1784C96.4052 118.131 96.6346 118.102 96.8666 118.044C97.1039 117.986 97.3149 117.896 97.4994 117.775C97.6893 117.654 97.8422 117.498 97.9582 117.308C98.0795 117.118 98.1402 116.891 98.1402 116.628ZM112.956 117.482C112.956 117.793 112.956 118.102 112.956 118.408C112.956 118.713 112.94 119.022 112.908 119.333C112.85 119.992 112.708 120.617 112.481 121.208C112.255 121.793 111.946 122.307 111.556 122.75C111.171 123.193 110.701 123.544 110.148 123.802C109.594 124.061 108.959 124.19 108.241 124.19C107.962 124.19 107.669 124.166 107.363 124.119C107.063 124.071 106.762 124 106.462 123.905C106.166 123.81 105.882 123.694 105.607 123.557C105.338 123.415 105.098 123.251 104.888 123.067L105.378 119.792C105.689 120.092 106.034 120.338 106.414 120.528C106.794 120.712 107.208 120.804 107.656 120.804C107.946 120.804 108.191 120.762 108.392 120.678C108.592 120.593 108.758 120.477 108.89 120.33C109.022 120.182 109.125 120.011 109.199 119.816C109.278 119.615 109.333 119.404 109.365 119.183C109.402 118.956 109.423 118.724 109.428 118.487C109.438 118.249 109.444 118.015 109.444 117.783C109.444 116.944 109.402 116.111 109.317 115.283C109.233 114.45 109.159 113.617 109.096 112.783L112.719 112.546C112.877 114.191 112.956 115.837 112.956 117.482ZM123.089 112.863C122.851 114.719 122.648 116.567 122.48 118.408C122.311 120.243 122.15 122.091 121.997 123.953L118.754 124.19L118.896 122.972C118.791 123.093 118.667 123.199 118.525 123.288C118.388 123.378 118.24 123.452 118.082 123.51C117.923 123.562 117.76 123.602 117.591 123.628C117.422 123.649 117.262 123.657 117.109 123.652C116.75 123.647 116.413 123.578 116.096 123.446C115.78 123.309 115.49 123.13 115.226 122.908C114.962 122.682 114.725 122.421 114.514 122.125C114.303 121.825 114.124 121.511 113.976 121.184C113.834 120.852 113.723 120.514 113.644 120.172C113.57 119.829 113.533 119.497 113.533 119.175C113.533 118.7 113.541 118.21 113.557 117.704C113.578 117.192 113.612 116.681 113.66 116.169C113.707 115.658 113.768 115.151 113.842 114.65C113.921 114.149 114.018 113.669 114.134 113.211C114.778 113.242 115.424 113.271 116.072 113.298C116.721 113.324 117.367 113.332 118.01 113.321C117.889 113.78 117.768 114.242 117.647 114.706C117.531 115.164 117.425 115.629 117.33 116.098C117.235 116.562 117.159 117.029 117.101 117.498C117.043 117.967 117.014 118.442 117.014 118.922C117.014 119.033 117.019 119.191 117.03 119.396C117.04 119.602 117.067 119.805 117.109 120.005C117.156 120.206 117.225 120.383 117.314 120.535C117.409 120.683 117.541 120.757 117.71 120.757C117.91 120.757 118.09 120.673 118.248 120.504C118.406 120.33 118.546 120.098 118.667 119.808C118.788 119.518 118.891 119.183 118.976 118.803C119.065 118.423 119.139 118.028 119.197 117.617C119.26 117.2 119.31 116.781 119.347 116.359C119.384 115.937 119.411 115.541 119.426 115.172C119.447 114.798 119.461 114.463 119.466 114.168C119.476 113.872 119.482 113.643 119.482 113.48C119.482 113.374 119.479 113.271 119.474 113.171C119.469 113.071 119.461 112.968 119.45 112.863C119.793 112.873 120.133 112.881 120.471 112.886C120.808 112.892 121.148 112.894 121.491 112.894C121.755 112.894 122.018 112.894 122.282 112.894C122.551 112.889 122.82 112.878 123.089 112.863ZM130.501 119.808L130.168 123.32L123.508 123.842L123.761 112.546H127.874L127.289 119.808H130.501ZM139.36 113.29L135.642 119.365L135.753 123.842H131.687L131.782 119.396L128.887 113.527L132.921 113.021L134.187 116.438L135.563 113.021L139.36 113.29Z" fill="white"/>
</g>
<defs>
<linearGradient id="paint0_linear_1_71" x1="342" y1="162" x2="21.0779" y2="-34.4356" gradientUnits="userSpaceOnUse">
<stop stop-color="#C80039"/>
<stop offset="1" stop-color="#C80039" stop-opacity="0.44"/>
</linearGradient>
<clipPath id="clip0_1_71">
<path d="M0 0H294C316.627 0 327.941 0 334.971 7.02944C342 14.0589 342 25.3726 342 48V114C342 136.627 342 147.941 334.971 154.971C327.941 162 316.627 162 294 162H48C25.3726 162 14.0589 162 7.02944 154.971C0 147.941 0 136.627 0 114V0Z" fill="white"/>
</clipPath>
</defs>
</svg>
