<svg width="30" height="30" viewBox="0 0 30 30" fill="none" xmlns="http://www.w3.org/2000/svg">
<path d="M4.98124 18.2938L3.08125 16.3938C2.30625 15.6188 2.30625 14.3438 3.08125 13.5688L4.98124 11.6687C5.30624 11.3437 5.56874 10.7062 5.56874 10.2562V7.56871C5.56874 6.46871 6.46875 5.56874 7.56875 5.56874H10.2562C10.7062 5.56874 11.3437 5.30627 11.6687 4.98127L13.5687 3.08125C14.3437 2.30625 15.6187 2.30625 16.3937 3.08125L18.2938 4.98127C18.6188 5.30627 19.2562 5.56874 19.7062 5.56874H22.3938C23.4938 5.56874 24.3937 6.46871 24.3937 7.56871V10.2562C24.3937 10.7062 24.6562 11.3437 24.9812 11.6687L26.8813 13.5688C27.6563 14.3438 27.6563 15.6188 26.8813 16.3938L24.9812 18.2938C24.6562 18.6188 24.3937 19.2563 24.3937 19.7063V22.3937C24.3937 23.4937 23.4938 24.3938 22.3938 24.3938H19.7062C19.2562 24.3938 18.6188 24.6563 18.2938 24.9813L16.3937 26.8813C15.6187 27.6563 14.3437 27.6563 13.5687 26.8813L11.6687 24.9813C11.3437 24.6563 10.7062 24.3938 10.2562 24.3938H7.56875C6.46875 24.3938 5.56874 23.4937 5.56874 22.3937V19.7063C5.56874 19.2438 5.30624 18.6063 4.98124 18.2938Z" stroke="#333333" stroke-width="1.60714" stroke-linecap="round" stroke-linejoin="round"/>
<path d="M11.25 18.75L18.75 11.25" stroke="#333333" stroke-width="1.60714" stroke-linecap="round" stroke-linejoin="round"/>
<path d="M18.1181 18.125H18.1294" stroke="#333333" stroke-width="2.5" stroke-linecap="round" stroke-linejoin="round"/>
<path d="M11.8681 11.875H11.8794" stroke="#333333" stroke-width="2.5" stroke-linecap="round" stroke-linejoin="round"/>
</svg>
