<svg width="28" height="28" viewBox="0 0 28 28" fill="none" xmlns="http://www.w3.org/2000/svg">
<path d="M17.4999 2.3335V14.0002C17.4999 15.2835 16.4499 16.3335 15.1666 16.3335H2.33325V8.89016C3.18492 9.90516 4.49162 10.5352 5.93828 10.5002C7.11662 10.4768 8.17826 10.0218 8.97159 9.2635C9.33326 8.96017 9.63661 8.57515 9.86994 8.15515C10.2899 7.44348 10.5233 6.60346 10.4999 5.72846C10.4649 4.36346 9.85827 3.16183 8.91327 2.3335H17.4999Z" stroke="#333333" stroke-width="1.5" stroke-linecap="round" stroke-linejoin="round"/>
<path d="M25.6666 16.3335V19.8335C25.6666 21.7702 24.1033 23.3335 22.1666 23.3335H20.9999C20.9999 22.0502 19.9499 21.0002 18.6666 21.0002C17.3833 21.0002 16.3333 22.0502 16.3333 23.3335H11.6666C11.6666 22.0502 10.6166 21.0002 9.33325 21.0002C8.04992 21.0002 6.99992 22.0502 6.99992 23.3335H5.83325C3.89659 23.3335 2.33325 21.7702 2.33325 19.8335V16.3335H15.1666C16.4499 16.3335 17.4999 15.2835 17.4999 14.0002V5.8335H19.6466C20.4866 5.8335 21.2566 6.28851 21.6766 7.01184L23.6716 10.5002H22.1666C21.5249 10.5002 20.9999 11.0252 20.9999 11.6668V15.1668C20.9999 15.8085 21.5249 16.3335 22.1666 16.3335H25.6666Z" stroke="#333333" stroke-width="1.5" stroke-linecap="round" stroke-linejoin="round"/>
<path d="M9.33333 25.6667C10.622 25.6667 11.6667 24.622 11.6667 23.3333C11.6667 22.0447 10.622 21 9.33333 21C8.04467 21 7 22.0447 7 23.3333C7 24.622 8.04467 25.6667 9.33333 25.6667Z" stroke="#333333" stroke-width="1.5" stroke-linecap="round" stroke-linejoin="round"/>
<path d="M18.6666 25.6667C19.9552 25.6667 20.9999 24.622 20.9999 23.3333C20.9999 22.0447 19.9552 21 18.6666 21C17.3779 21 16.3333 22.0447 16.3333 23.3333C16.3333 24.622 17.3779 25.6667 18.6666 25.6667Z" stroke="#333333" stroke-width="1.5" stroke-linecap="round" stroke-linejoin="round"/>
<path d="M25.6667 14V16.3333H22.1667C21.525 16.3333 21 15.8083 21 15.1667V11.6667C21 11.025 21.525 10.5 22.1667 10.5H23.6716L25.6667 14Z" stroke="#333333" stroke-width="1.5" stroke-linecap="round" stroke-linejoin="round"/>
<path d="M10.5002 5.72804C10.5235 6.60304 10.2902 7.44306 9.87023 8.15473C9.63689 8.57473 9.33354 8.95974 8.97187 9.26307C8.17854 10.0214 7.1169 10.4764 5.93856 10.4997C4.4919 10.5347 3.1852 9.90473 2.33353 8.88973C2.1702 8.71473 2.03021 8.51641 1.90187 8.31808C1.44687 7.62974 1.1902 6.8131 1.16687 5.9381C1.13187 4.4681 1.78519 3.1264 2.83519 2.2514C3.62852 1.59806 4.63184 1.18974 5.7285 1.1664C6.9535 1.14307 8.07355 1.5864 8.91355 2.33307C9.85855 3.1614 10.4652 4.36304 10.5002 5.72804Z" stroke="#333333" stroke-width="1.5" stroke-miterlimit="10" stroke-linecap="round" stroke-linejoin="round"/>
<path d="M4.01392 5.86808L5.19226 6.98804L7.63055 4.63135" stroke="#333333" stroke-width="1.5" stroke-linecap="round" stroke-linejoin="round"/>
</svg>
